<svg width="110" height="113" viewBox="0 0 110 113" fill="none" xmlns="http://www.w3.org/2000/svg">
<path d="M77.3859 65.1304L77.4025 65.0902C77.6252 64.5429 78.0448 64.0989 78.5786 63.8455C79.1124 63.5922 79.7218 63.5479 80.2866 63.7215L108.246 72.1942C108.553 72.2869 108.837 72.4407 109.083 72.6463C109.329 72.8519 109.531 73.1051 109.676 73.3905C109.822 73.676 109.908 73.988 109.93 74.3077C109.952 74.6273 109.909 74.9481 109.804 75.2508C109.136 77.1499 108.364 79.0108 107.492 80.8252C107.354 81.1145 107.158 81.3727 106.917 81.584C106.676 81.7953 106.394 81.9554 106.089 82.0545C105.784 82.1536 105.462 82.1895 105.143 82.1603C104.824 82.131 104.514 82.0371 104.232 81.8843L78.4639 68.1327C77.9418 67.8573 77.5417 67.3964 77.3422 66.8408C77.1427 66.2852 77.1583 65.6751 77.3859 65.1304Z" fill="#FF3D00"/>
<path d="M108.24 40.796C108.548 40.705 108.834 40.5523 109.08 40.3473C109.327 40.1422 109.529 39.8891 109.675 39.6034C109.821 39.3177 109.907 39.0053 109.928 38.6852C109.949 38.3652 109.905 38.0441 109.798 37.7417C102.063 15.7586 81.1154 3.94776e-05 56.4941 3.94776e-05C48.5568 -0.00935446 40.7071 1.65787 33.4588 4.89254C26.2105 8.12721 19.7272 12.8564 14.4334 18.7704C14.2194 19.0086 14.0561 19.2878 13.9533 19.5911C13.8505 19.8943 13.8104 20.2153 13.8353 20.5345C13.8603 20.8537 13.9499 21.1645 14.0986 21.4481C14.2473 21.7316 14.4521 21.982 14.7005 22.1841L37.2273 40.7606C37.6855 41.1374 38.268 41.3296 38.8605 41.2994C39.4531 41.2693 40.013 41.0189 40.4306 40.5975C43.056 37.9462 46.297 35.9862 49.8642 34.8921C53.4314 33.7981 57.214 33.604 60.8745 34.3274C64.5349 35.0507 67.9594 36.6689 70.8423 39.0376C73.7253 41.4062 75.9771 44.4517 77.3968 47.9023C77.6214 48.4495 78.0416 48.8936 78.5756 49.148C79.1097 49.4023 79.7193 49.4487 80.2857 49.2782L108.24 40.796Z" fill="#FF3D00"/>
<path d="M9.59663 31.4373C9.20765 31.2293 8.78023 31.1029 8.34063 31.066C7.90103 31.0291 7.45853 31.0825 7.04032 31.2229C6.6221 31.3632 6.23699 31.5876 5.90865 31.8823C5.58031 32.1769 5.31567 32.5355 5.13099 32.9361C0.573245 42.8933 -0.995564 53.9595 0.615057 64.7911C2.22568 75.6228 6.94644 85.7538 14.2041 93.954C14.4971 94.2835 14.8544 94.5495 15.2542 94.7357C15.6539 94.9218 16.0875 95.0241 16.5282 95.0363C16.969 95.0485 17.4075 94.9703 17.8169 94.8065C18.2263 94.6427 18.5978 94.3969 18.9085 94.084L38.3905 74.6328C38.9485 74.0737 39.2829 73.3299 39.3308 72.5414C39.3787 71.7529 39.1367 70.9741 38.6505 70.3516C36.2722 67.2843 34.7222 63.6572 34.1493 59.8184C33.5763 55.9796 33.9997 52.058 35.3787 48.43C35.6624 47.6939 35.6679 46.8796 35.3941 46.1397C35.1204 45.3999 34.5862 44.7853 33.8917 44.4111L9.59663 31.4373Z" fill="#FF3D00"/>
<path d="M61.3416 80.8809C61.2206 80.2989 60.8872 79.7829 60.4065 79.4333C59.9258 79.0836 59.3322 78.9255 58.7412 78.9897C57.9989 79.0629 57.2448 79.1008 56.4836 79.1008C52.7482 79.1063 49.0703 78.1818 45.7816 76.4105C45.2637 76.1252 44.6576 76.0444 44.083 76.184C43.5084 76.3236 43.007 76.6735 42.6777 77.1646L26.4486 101.455C26.2705 101.721 26.148 102.02 26.0884 102.335C26.0288 102.65 26.0334 102.973 26.1018 103.286C26.1703 103.599 26.3012 103.895 26.4867 104.156C26.6722 104.417 26.9085 104.637 27.1815 104.805C36.0142 110.178 46.1566 113.014 56.4954 113.001C59.3689 113.001 62.2383 112.785 65.0792 112.353C65.3962 112.304 65.6999 112.191 65.9721 112.021C66.2443 111.851 66.4792 111.628 66.6628 111.365C66.8464 111.102 66.9748 110.804 67.0402 110.49C67.1057 110.176 67.1069 109.852 67.0437 109.538L61.3416 80.8809Z" fill="#FF3D00"/>
<path d="M80.3902 107.703C87.2849 104.474 93.4594 99.8918 98.5459 94.2276C98.7601 93.9882 98.9236 93.7079 99.0265 93.4036C99.1295 93.0994 99.1698 92.7774 99.1451 92.4572C99.1204 92.1369 99.0311 91.825 98.8826 91.5401C98.7341 91.2553 98.5295 91.0034 98.2812 90.7998L75.7071 72.2729C75.2497 71.8982 74.6692 71.7073 74.0787 71.7375C73.4882 71.7676 72.9301 72.0167 72.5133 72.436C70.9131 74.0451 69.0802 75.4046 67.076 76.469C66.553 76.7442 66.1519 77.2052 65.9519 77.7614C65.752 78.3176 65.7676 78.9285 65.9957 79.4737L77.1752 106.464C77.2991 106.761 77.4819 107.03 77.7127 107.255C77.9435 107.479 78.2174 107.655 78.5179 107.77C78.8184 107.886 79.1392 107.94 79.461 107.928C79.7828 107.917 80.0989 107.84 80.3902 107.703Z" fill="#FF3D00"/>
</svg>
