<svg width="432" height="113" viewBox="0 0 432 113" fill="none" xmlns="http://www.w3.org/2000/svg">
<path d="M77.3859 65.1304L77.4025 65.0902C77.6252 64.5429 78.0448 64.0989 78.5786 63.8455C79.1124 63.5922 79.7218 63.5479 80.2866 63.7215L108.246 72.1942C108.553 72.2869 108.837 72.4407 109.083 72.6463C109.329 72.8519 109.531 73.1051 109.676 73.3905C109.822 73.676 109.908 73.988 109.93 74.3077C109.952 74.6273 109.909 74.9481 109.804 75.2508C109.136 77.1499 108.364 79.0108 107.492 80.8252C107.354 81.1145 107.158 81.3727 106.917 81.584C106.676 81.7953 106.394 81.9554 106.089 82.0545C105.784 82.1536 105.462 82.1895 105.143 82.1603C104.824 82.131 104.514 82.0371 104.232 81.8843L78.4639 68.1327C77.9418 67.8573 77.5417 67.3964 77.3422 66.8408C77.1427 66.2852 77.1583 65.6751 77.3859 65.1304Z" fill="#080808"/>
<path d="M108.24 40.796C108.548 40.705 108.834 40.5523 109.08 40.3473C109.327 40.1422 109.529 39.8891 109.675 39.6034C109.821 39.3177 109.907 39.0053 109.928 38.6852C109.949 38.3652 109.905 38.0441 109.798 37.7417C102.063 15.7586 81.1154 3.94776e-05 56.4941 3.94776e-05C48.5568 -0.00935446 40.7071 1.65787 33.4588 4.89254C26.2105 8.12721 19.7272 12.8564 14.4334 18.7704C14.2194 19.0086 14.0561 19.2878 13.9533 19.5911C13.8505 19.8943 13.8104 20.2153 13.8353 20.5345C13.8603 20.8537 13.9499 21.1645 14.0986 21.4481C14.2473 21.7316 14.4521 21.982 14.7005 22.1841L37.2273 40.7606C37.6855 41.1374 38.268 41.3296 38.8605 41.2994C39.4531 41.2693 40.013 41.0189 40.4306 40.5975C43.056 37.9462 46.297 35.9862 49.8642 34.8921C53.4314 33.7981 57.214 33.604 60.8745 34.3274C64.5349 35.0507 67.9594 36.6689 70.8423 39.0376C73.7253 41.4062 75.9771 44.4517 77.3968 47.9023C77.6214 48.4495 78.0416 48.8936 78.5756 49.148C79.1097 49.4023 79.7193 49.4487 80.2857 49.2782L108.24 40.796Z" fill="#080808"/>
<path d="M8.28027 31.7812C8.62232 31.8099 8.95514 31.9084 9.25781 32.0703H9.25879L33.5518 45.042V45.043C34.0922 45.3343 34.5076 45.8129 34.7207 46.3887C34.9338 46.9647 34.9298 47.5988 34.709 48.1719L34.708 48.1748C33.2853 51.9179 32.8484 55.9643 33.4395 59.9248C34.0306 63.8849 35.6296 67.6267 38.083 70.791L38.085 70.793C38.4634 71.2776 38.6515 71.8843 38.6143 72.498C38.577 73.1112 38.3174 73.6899 37.8838 74.125L18.4014 93.5762L18.3994 93.5781C18.1579 93.8213 17.8689 94.0123 17.5508 94.1396C17.2324 94.267 16.8906 94.3288 16.5479 94.3193C16.2052 94.3098 15.8683 94.2296 15.5576 94.085C15.3246 93.9765 15.1097 93.8331 14.9209 93.6602L14.7402 93.4775C7.57522 85.3816 2.9153 75.3792 1.3252 64.6855C-0.264908 53.9919 1.28379 43.0668 5.7832 33.2363C5.92692 32.9247 6.13228 32.6452 6.3877 32.416C6.64317 32.1868 6.94316 32.0126 7.26855 31.9033C7.59391 31.7941 7.93828 31.7526 8.28027 31.7812Z" fill="#080808" stroke="black" stroke-width="1.43548"/>
<path d="M61.3416 80.8809C61.2206 80.2989 60.8872 79.7829 60.4065 79.4333C59.9258 79.0836 59.3322 78.9255 58.7412 78.9897C57.9989 79.0629 57.2448 79.1008 56.4836 79.1008C52.7482 79.1063 49.0703 78.1818 45.7816 76.4105C45.2637 76.1252 44.6576 76.0444 44.083 76.184C43.5084 76.3236 43.007 76.6735 42.6777 77.1646L26.4486 101.455C26.2705 101.721 26.148 102.02 26.0884 102.335C26.0288 102.65 26.0334 102.973 26.1018 103.286C26.1703 103.599 26.3012 103.895 26.4867 104.156C26.6722 104.417 26.9085 104.637 27.1815 104.805C36.0142 110.178 46.1566 113.014 56.4954 113.001C59.3689 113.001 62.2383 112.785 65.0792 112.353C65.3962 112.304 65.6999 112.191 65.9721 112.021C66.2443 111.851 66.4792 111.628 66.6628 111.365C66.8464 111.102 66.9748 110.804 67.0402 110.49C67.1057 110.176 67.1069 109.852 67.0437 109.538L61.3416 80.8809Z" fill="#080808"/>
<path d="M80.3902 107.703C87.2849 104.474 93.4594 99.8918 98.5459 94.2276C98.7601 93.9882 98.9236 93.7079 99.0265 93.4036C99.1295 93.0994 99.1698 92.7774 99.1451 92.4572C99.1204 92.1369 99.0311 91.825 98.8826 91.5401C98.7341 91.2553 98.5295 91.0034 98.2812 90.7998L75.7071 72.2729C75.2497 71.8982 74.6692 71.7073 74.0787 71.7375C73.4882 71.7676 72.9301 72.0167 72.5133 72.436C70.9131 74.0451 69.0802 75.4046 67.076 76.469C66.553 76.7442 66.1519 77.2052 65.9519 77.7614C65.752 78.3176 65.7676 78.9285 65.9957 79.4737L77.1752 106.464C77.2991 106.761 77.4819 107.03 77.7127 107.255C77.9435 107.479 78.2174 107.655 78.5179 107.77C78.8184 107.886 79.1392 107.94 79.461 107.928C79.7828 107.917 80.0989 107.84 80.3902 107.703Z" fill="#080808"/>
<path d="M216.794 63.9522C216.973 88.4893 209.898 94.6684 181.332 94.6684C152.765 94.6684 145.601 87.5043 145.601 58.6687C145.601 29.8332 152.765 22.6691 181.332 22.6691C209.898 22.6691 216.973 28.7586 216.794 53.2061H197.093C197.272 39.4152 195.66 37.8928 181.332 37.8928C166.914 37.8928 165.302 39.9525 165.302 58.6687C165.302 77.385 166.914 79.4446 181.332 79.4446C195.66 79.4446 197.272 77.9223 197.093 63.9522H216.794ZM250.059 38.7883C269.94 38.7883 274.955 42.5495 274.955 57.415V93.5938H257.94V86.2505C256.149 91.9818 251.492 94.5788 242.985 94.6684C226.328 95.2057 222.209 91.8923 222.209 78.1014C222.209 65.0269 226.328 61.7135 242.716 61.7135L257.94 61.6239V58.5792C257.94 52.0419 257.134 51.3255 249.88 51.3255C241.731 51.3255 240.836 52.0419 241.015 58.3105H224V56.4299C224 42.2808 229.194 38.7883 250.059 38.7883ZM240.119 78.2805C240.119 82.2207 241.104 82.6685 249.88 82.4894C255.522 82.3998 257.94 80.6088 257.94 76.4894V74.1611L249.88 74.2507C241.104 74.2507 240.119 74.6089 240.119 78.2805ZM307.12 78.37V93.5938H297.359C285.807 93.5938 282.941 90.6386 283.03 78.9073V21.9527H300.045V73.8029C300.045 77.9223 300.762 78.37 307.12 78.37ZM367.445 21.9527V93.5938H350.878V82.3998C349.355 90.9072 343.893 94.6684 333.415 94.6684C316.669 94.6684 312.46 89.1162 312.46 66.7283C312.46 44.3405 316.49 38.7883 332.52 38.7883C342.728 38.7883 348.46 41.2957 350.43 47.1166V21.9527H367.445ZM330.37 66.7283C330.37 78.9969 331.355 80.3401 340.579 80.3401C346.758 80.3401 350.43 78.6387 350.43 74.6089V63.3254C350.43 56.1613 347.206 53.1165 339.594 53.1165C331.266 53.1165 330.37 54.4598 330.37 66.7283ZM402.489 38.7883C422.37 38.7883 427.384 42.5495 427.384 57.415V93.5938H410.37V86.2505C408.579 91.9818 403.922 94.5788 395.415 94.6684C378.758 95.2057 374.639 91.8923 374.639 78.1014C374.639 65.0269 378.758 61.7135 395.146 61.7135L410.37 61.6239V58.5792C410.37 52.0419 409.564 51.3255 402.31 51.3255C394.161 51.3255 393.265 52.0419 393.445 58.3105H376.43V56.4299C376.43 42.2808 381.624 38.7883 402.489 38.7883ZM392.549 78.2805C392.549 82.2207 393.534 82.6685 402.31 82.4894C407.952 82.3998 410.37 80.6088 410.37 76.4894V74.1611L402.31 74.2507C393.534 74.2507 392.549 74.6089 392.549 78.2805Z" fill="#080808"/>
</svg>
